<?xml version="1.0" encoding="utf-8"?>
<!-- Generator: Adobe Illustrator 25.0.0, SVG Export Plug-In . SVG Version: 6.00 Build 0)  -->
<svg version="1.1" id="Layer_1" xmlns="http://www.w3.org/2000/svg" xmlns:xlink="http://www.w3.org/1999/xlink" x="0px" y="0px"
	 viewBox="0 0 1080 1080" style="enable-background:new 0 0 1080 1080;" xml:space="preserve">
<style type="text/css">
	.st0{fill:#BCE5FA;}
</style>
<g>
	<path class="st0" d="M252.04,552.36c-0.06,6.49-1.78,12.31-5.17,17.46c-3.39,5.15-8.32,9.16-14.79,12.03s-14.13,4.27-22.96,4.19
		c-10.6-0.09-19.32-2.17-26.17-6.24c-4.86-2.92-8.79-6.8-11.8-11.64c-3.01-4.84-4.49-9.52-4.45-14.07c0.02-2.64,0.96-4.89,2.81-6.75
		c1.85-1.86,4.19-2.78,7.02-2.76c2.29,0.02,4.23,0.77,5.8,2.25c1.57,1.48,2.91,3.66,4.01,6.55c1.34,3.43,2.79,6.3,4.36,8.61
		c1.57,2.31,3.78,4.22,6.65,5.73c2.87,1.52,6.65,2.29,11.33,2.33c6.45,0.06,11.69-1.4,15.75-4.37c4.05-2.97,6.1-6.7,6.14-11.19
		c0.03-3.56-1.03-6.47-3.18-8.71c-2.15-2.24-4.95-3.96-8.38-5.16c-3.43-1.2-8.02-2.49-13.77-3.86c-7.7-1.87-14.14-4.04-19.32-6.51
		s-9.28-5.79-12.29-10c-3.02-4.2-4.5-9.4-4.44-15.6c0.05-5.91,1.71-11.14,4.97-15.7c3.26-4.56,7.96-8.05,14.08-10.46
		c6.12-2.41,13.31-3.58,21.56-3.51c6.59,0.06,12.28,0.93,17.08,2.6c4.79,1.68,8.77,3.89,11.92,6.62c3.15,2.74,5.44,5.6,6.88,8.59
		c1.44,2.99,2.15,5.9,2.12,8.73c-0.02,2.59-0.96,4.91-2.81,6.97c-1.85,2.06-4.14,3.08-6.88,3.05c-2.49-0.02-4.38-0.66-5.66-1.92
		c-1.28-1.26-2.67-3.31-4.16-6.15c-1.92-4.07-4.23-7.25-6.95-9.55c-2.72-2.29-7.1-3.47-13.15-3.52c-5.62-0.05-10.15,1.14-13.62,3.58
		c-3.46,2.44-5.21,5.39-5.24,8.85c-0.02,2.15,0.55,4.01,1.71,5.58c1.16,1.57,2.76,2.93,4.8,4.07c2.04,1.14,4.11,2.04,6.2,2.69
		c2.09,0.65,5.55,1.61,10.38,2.87c6.04,1.47,11.51,3.08,16.4,4.83c4.89,1.75,9.05,3.86,12.47,6.34c3.42,2.47,6.08,5.58,7.97,9.34
		C251.16,542.36,252.08,546.94,252.04,552.36z"/>
	<path class="st0" d="M340.72,495.94l-23.73-0.21l-0.69,78c-0.04,4.49-1.07,7.82-3.09,9.97c-2.02,2.15-4.62,3.22-7.79,3.19
		c-3.22-0.03-5.84-1.15-7.84-3.36c-2.01-2.21-2.99-5.54-2.95-9.99l0.69-78l-23.73-0.21c-3.71-0.03-6.46-0.87-8.25-2.53
		c-1.79-1.65-2.68-3.82-2.65-6.51c0.02-2.78,0.98-4.97,2.88-6.57c1.89-1.59,4.62-2.38,8.19-2.35l69.14,0.61
		c3.76,0.03,6.55,0.89,8.36,2.56c1.82,1.68,2.71,3.86,2.69,6.54c-0.02,2.69-0.97,4.84-2.84,6.46
		C347.22,495.18,344.43,495.97,340.72,495.94z"/>
	<path class="st0" d="M393.58,539.91l-7.62-0.07l-0.3,34.5c-0.04,4.54-1.07,7.88-3.09,10.01c-2.02,2.13-4.64,3.18-7.86,3.15
		c-3.47-0.03-6.14-1.18-8.03-3.44c-1.88-2.26-2.81-5.57-2.77-9.91l0.73-82.61c0.04-4.69,1.12-8.07,3.24-10.15
		c2.12-2.08,5.52-3.1,10.21-3.06l35.37,0.31c4.88,0.04,9.05,0.29,12.52,0.73c3.46,0.45,6.58,1.32,9.35,2.61
		c3.36,1.45,6.32,3.5,8.88,6.16c2.56,2.66,4.5,5.74,5.81,9.24c1.31,3.5,1.95,7.21,1.92,11.11c-0.07,8.01-2.39,14.38-6.94,19.13
		c-4.56,4.75-11.44,8.08-20.63,10c3.84,2.08,7.5,5.15,10.98,9.18c3.48,4.04,6.58,8.32,9.3,12.86c2.72,4.54,4.83,8.64,6.34,12.29
		c1.51,3.65,2.25,6.16,2.24,7.53c-0.01,1.42-0.48,2.82-1.39,4.2c-0.92,1.38-2.16,2.47-3.73,3.26c-1.57,0.79-3.38,1.18-5.43,1.16
		c-2.44-0.02-4.49-0.61-6.14-1.78c-1.65-1.16-3.07-2.63-4.25-4.4c-1.18-1.77-2.78-4.37-4.8-7.81l-8.59-14.58
		c-3.08-5.35-5.84-9.43-8.28-12.23c-2.44-2.8-4.93-4.73-7.46-5.78C400.63,540.48,397.44,539.94,393.58,539.91z M406.43,494.9
		l-20.07-0.18l-0.26,29.52l19.48,0.17c5.22,0.05,9.62-0.37,13.2-1.24c3.57-0.87,6.31-2.39,8.21-4.54c1.9-2.16,2.87-5.14,2.9-8.95
		c0.03-2.98-0.71-5.61-2.2-7.89c-1.49-2.28-3.58-4-6.25-5.15C418.9,495.55,413.9,494.97,406.43,494.9z"/>
	<path class="st0" d="M543.38,496.55l-49-0.43l-0.23,26.37l45.12,0.4c3.32,0.03,5.79,0.8,7.41,2.3c1.62,1.5,2.42,3.48,2.4,5.92
		c-0.02,2.44-0.84,4.42-2.47,5.95c-1.62,1.52-4.12,2.27-7.49,2.24l-45.12-0.4l-0.27,30.54l50.68,0.45c3.42,0.03,5.99,0.85,7.71,2.45
		c1.72,1.6,2.57,3.72,2.54,6.36c-0.02,2.54-0.91,4.6-2.65,6.17c-1.75,1.57-4.33,2.34-7.75,2.31l-59.1-0.52
		c-4.74-0.04-8.13-1.12-10.19-3.24c-2.06-2.12-3.06-5.52-3.02-10.21l0.71-80.71c0.03-3.12,0.51-5.67,1.46-7.64
		c0.94-1.97,2.41-3.4,4.4-4.28c1.99-0.89,4.52-1.32,7.59-1.29l57.42,0.5c3.47,0.03,6.04,0.82,7.71,2.37
		c1.67,1.55,2.5,3.57,2.47,6.06c-0.02,2.54-0.88,4.57-2.58,6.09C549.43,495.83,546.85,496.58,543.38,496.55z"/>
	<path class="st0" d="M640.69,575.85l-5.01-13.52l-43.65-0.38l-5.25,13.72c-2.05,5.35-3.79,8.96-5.22,10.83
		c-1.43,1.87-3.76,2.79-6.98,2.76c-2.74-0.02-5.14-1.05-7.22-3.07c-2.08-2.02-3.11-4.3-3.09-6.84c0.01-1.46,0.27-2.98,0.77-4.53
		c0.5-1.56,1.33-3.72,2.47-6.5l28.08-69.48c0.8-1.99,1.76-4.39,2.88-7.19c1.12-2.8,2.32-5.12,3.58-6.96
		c1.26-1.84,2.91-3.33,4.95-4.46c2.04-1.13,4.54-1.68,7.52-1.66c3.03,0.03,5.55,0.62,7.57,1.79c2.02,1.17,3.64,2.66,4.87,4.47
		c1.23,1.82,2.26,3.77,3.1,5.85c0.84,2.08,1.9,4.86,3.18,8.34l27.44,69.53c2.15,5.29,3.21,9.14,3.19,11.53
		c-0.02,2.49-1.08,4.76-3.17,6.82c-2.09,2.06-4.61,3.07-7.53,3.05c-1.71-0.02-3.17-0.33-4.39-0.95c-1.22-0.62-2.23-1.46-3.05-2.52
		c-0.82-1.06-1.7-2.68-2.63-4.86C642.16,579.44,641.36,577.51,640.69,575.85z M597.89,545.66l32.08,0.28l-15.8-44.45L597.89,545.66z
		"/>
	<path class="st0" d="M716.16,572.48l-16.61-68.56l-0.65,74.12c-0.04,4.1-0.98,7.17-2.83,9.2c-1.85,2.03-4.29,3.04-7.31,3.01
		c-2.93-0.03-5.31-1.06-7.15-3.1c-1.84-2.04-2.74-5.14-2.7-9.29l0.75-84.96c0.04-4.69,1.29-7.84,3.75-9.45
		c2.46-1.61,5.76-2.4,9.91-2.37l6.74,0.06c4.05,0.04,6.99,0.43,8.82,1.18c1.82,0.75,3.17,2.08,4.03,3.99
		c0.86,1.91,1.83,5.02,2.92,9.33l15.08,58.95l16.12-58.67c1.16-4.29,2.19-7.38,3.08-9.28c0.9-1.9,2.26-3.2,4.1-3.92
		c1.84-0.72,4.78-1.06,8.84-1.02l6.74,0.06c4.15,0.04,7.44,0.88,9.87,2.54c2.43,1.66,3.62,4.83,3.58,9.52l-0.75,84.96
		c-0.04,4.1-0.98,7.17-2.83,9.2c-1.85,2.03-4.31,3.04-7.39,3.01c-2.88-0.03-5.24-1.07-7.08-3.14c-1.84-2.07-2.74-5.15-2.7-9.25
		l0.65-74.12l-17.81,68.25c-1.16,4.43-2.11,7.68-2.83,9.75c-0.73,2.07-2.05,3.95-3.97,5.64c-1.92,1.69-4.56,2.52-7.93,2.49
		c-2.54-0.02-4.68-0.59-6.43-1.7c-1.75-1.11-3.1-2.53-4.06-4.25c-0.96-1.72-1.71-3.62-2.26-5.7
		C717.28,576.9,716.73,574.73,716.16,572.48z"/>
	<path class="st0" d="M876.26,499.47l-49-0.43l-0.23,26.37l45.12,0.4c3.32,0.03,5.79,0.8,7.41,2.3c1.62,1.5,2.42,3.48,2.4,5.92
		c-0.02,2.44-0.84,4.42-2.47,5.95c-1.62,1.52-4.12,2.27-7.49,2.24l-45.12-0.4l-0.27,30.54l50.68,0.45c3.42,0.03,5.99,0.85,7.71,2.45
		c1.72,1.6,2.57,3.72,2.54,6.36c-0.02,2.54-0.91,4.6-2.65,6.17c-1.75,1.57-4.33,2.34-7.75,2.31l-59.1-0.52
		c-4.74-0.04-8.13-1.12-10.19-3.24c-2.06-2.12-3.06-5.52-3.02-10.21l0.71-80.71c0.03-3.12,0.51-5.67,1.46-7.64
		c0.94-1.97,2.41-3.4,4.4-4.28c1.98-0.89,4.52-1.32,7.59-1.29l57.42,0.5c3.47,0.03,6.04,0.82,7.71,2.37
		c1.67,1.55,2.5,3.57,2.47,6.06c-0.02,2.54-0.88,4.57-2.58,6.09C882.3,498.76,879.72,499.5,876.26,499.47z"/>
	<path class="st0" d="M900.98,569.42l24.33-34.87l-19.94-31.38c-1.88-3.04-3.28-5.66-4.22-7.84c-0.93-2.18-1.39-4.27-1.37-6.27
		c0.02-2.05,0.95-3.88,2.79-5.51c1.85-1.62,4.09-2.42,6.72-2.39c3.03,0.03,5.38,0.94,7.04,2.74c1.67,1.8,3.97,5.13,6.91,9.99
		l15.88,26.21l17.44-25.92c1.44-2.18,2.66-4.05,3.67-5.61c1.01-1.55,1.99-2.84,2.93-3.86c0.94-1.02,1.98-1.78,3.13-2.28
		c1.15-0.5,2.49-0.75,4-0.73c2.73,0.02,4.96,0.86,6.68,2.51c1.72,1.65,2.57,3.6,2.55,5.85c-0.03,3.27-1.95,7.7-5.76,13.28
		l-21.44,31.45l22.47,35.28c2.02,3.09,3.49,5.66,4.4,7.69c0.91,2.03,1.36,3.96,1.34,5.76c-0.02,1.71-0.44,3.27-1.29,4.68
		c-0.84,1.41-2.03,2.52-3.55,3.34c-1.52,0.82-3.23,1.22-5.14,1.2c-2.05-0.02-3.78-0.46-5.19-1.33c-1.41-0.87-2.55-1.94-3.41-3.22
		c-0.87-1.28-2.48-3.76-4.84-7.44l-18.63-29.9l-20.34,30.44c-1.58,2.43-2.71,4.13-3.38,5.1c-0.67,0.97-1.47,1.92-2.41,2.84
		c-0.94,0.92-2.04,1.64-3.32,2.17c-1.28,0.53-2.77,0.78-4.47,0.77c-2.64-0.02-4.82-0.85-6.53-2.47c-1.72-1.63-2.57-3.98-2.54-7.05
		C895.55,579.01,897.37,574.61,900.98,569.42z"/>
</g>
</svg>
